IKResults
version=1
nRows=11
nColumns=40
inDegrees=yes

Units are S.I. units (second, meters, Newtons, ...)
Angles are in degrees.

endheader
time	pelvis_tilt	pelvis_list	pelvis_rotation	pelvis_tx	pelvis_ty	pelvis_tz	hip_flexion_r	hip_adduction_r	hip_rotation_r	knee_angle_r	knee_angle_r_beta	ankle_angle_r	subtalar_angle_r	mtp_angle_r	hip_flexion_l	hip_adduction_l	hip_rotation_l	knee_angle_l	knee_angle_l_beta	ankle_angle_l	subtalar_angle_l	mtp_angle_l	lumbar_extension	lumbar_bending	lumbar_rotation	arm_flex_r	arm_add_r	arm_rot_r	elbow_flex_r	pro_sup_r	wrist_flex_r	wrist_dev_r	arm_flex_l	arm_add_l	arm_rot_l	elbow_flex_l	pro_sup_l	wrist_flex_l	wrist_dev_l
      0.66000000	     13.28051628	      1.17190522	     -3.99643119	     -0.10306174	      0.90510103	     -0.99282153	    -28.80702557	     -0.41860863	     -5.87782037	    -22.36462547	     -0.39033635	     14.21378909	     -4.50628797	     -5.08850037	     14.76543698	      0.86929043	     19.54793247	    -19.38447711	     -0.33832295	      5.99832656	     -4.04873684	     -7.50552665	    -22.43218422	     -4.02358025	      2.93456954	     -3.56308281	    -16.66742728	     -4.16027280	     59.89110287	     89.95437384	      0.00000000	      0.00000000	    -12.67568790	      7.89369549	     20.73623275	      8.92161148	     89.95437384	      0.00000000	      0.00000000
      0.67000000	     13.33049154	      1.30441031	     -4.57625053	     -0.08635138	      0.90435584	     -0.99287971	    -28.79797210	     -1.07360343	     -5.22317251	    -24.37121759	     -0.42535799	     12.59383644	     -4.84055830	     -4.94358820	     14.45616806	      0.61583755	     19.25461023	    -19.48654819	     -0.34010443	      6.47166986	     -3.77150653	     -7.40283822	    -22.10963541	     -4.36831364	      3.47622527	     -4.03880597	    -16.55791083	     -4.54333168	     60.11527010	     89.95437384	      0.00000000	      0.00000000	    -13.10162020	      8.05672605	     20.61787779	      8.24427022	     89.95437384	      0.00000000	      0.00000000
      0.68000000	     13.43108201	      1.60305223	     -5.00252135	     -0.06924012	      0.90410129	     -0.99334436	    -28.86248911	     -1.71351908	     -4.31299493	    -26.24974963	     -0.45814456	     10.54320312	     -5.88251774	     -4.87061026	     14.11572441	      0.09882950	     18.82420673	    -20.01851155	     -0.34938894	      4.99603975	     -2.23809628	     -7.19251966	    -21.83204939	     -4.82311206	      3.74515588	     -4.60029982	    -16.35183848	     -4.92439634	     60.26980983	     89.95437384	      0.00000000	      0.00000000	    -13.60471838	      8.18410772	     20.73061294	      7.88372022	     89.95437384	      0.00000000	      0.00000000
      0.69000000	     13.51458847	      1.73606101	     -5.00194772	     -0.05190410	      0.90421717	     -0.99425823	    -28.73444454	     -2.03134714	     -3.98328465	    -28.41256336	     -0.49589278	      7.93796580	     -6.25492769	     -4.53075951	     14.00879800	     -0.16160161	     18.30002472	    -21.53762157	     -0.37590241	      1.67477285	     -0.71472412	     -6.76309732	    -21.53228524	     -4.97659455	      3.64903884	     -5.10204808	    -16.21194227	     -5.00773253	     60.06060246	     89.95437384	      0.00000000	      0.00000000	    -14.11121289	      8.32775941	     20.63813664	      7.72057458	     89.95437384	      0.00000000	      0.00000000
      0.70000000	     13.78081191	      1.87433205	     -5.13122111	     -0.03457497	      0.90500787	     -0.99468401	    -28.51910212	     -2.36054365	     -3.45337113	    -30.88834290	     -0.53910328	      5.72132189	     -6.05958190	     -4.21755544	     13.51063844	     -0.50394293	     16.85697667	    -23.19570950	     -0.40484150	      0.66323146	     -0.48573278	     -6.52769090	    -21.47117176	     -5.23439706	      3.44805547	     -5.48380702	    -15.90598962	     -5.02533303	     59.68463764	     89.95437384	      0.00000000	      0.00000000	    -14.77818967	      8.45712408	     20.47122433	      8.05435544	     89.95437384	      0.00000000	      0.00000000
      0.71000000	     14.16143633	      2.05972019	     -5.14091929	     -0.01736469	      0.90674597	     -0.99535693	    -27.79775332	     -2.93877701	     -4.21405628	    -34.16561550	     -0.59630248	      0.90908392	     -6.97233821	     -3.48515732	     12.84915106	     -0.83097022	     16.30457931	    -24.68981187	     -0.43091851	      0.52184535	      0.52835619	     -6.29457652	    -21.51397172	     -5.49345651	      3.25220292	     -5.81363493	    -15.60871206	     -5.01603341	     58.90949567	     89.95437384	      0.00000000	      0.00000000	    -14.90747412	      8.61698095	     20.22336732	      7.83777370	     89.95437384	      0.00000000	      0.00000000
      0.72000000	     14.59147925	      2.59609261	     -5.15197178	     -0.00000346	      0.90902237	     -0.99618214	    -27.00893875	     -3.77238998	     -4.58288285	    -37.41797849	     -0.65306692	     -4.18380026	     -8.21677636	     -2.61824057	     12.08228527	     -1.63113484	     15.50910453	    -26.08672880	     -0.45529931	      1.10177789	      1.84643098	     -6.07379949	    -21.61599755	     -6.11731509	      2.90436691	     -6.22702516	    -15.20224120	     -4.96989917	     57.99612384	     89.95437384	      0.00000000	      0.00000000	    -15.01768106	      8.85588760	     19.85463031	      7.83998566	     89.95437384	      0.00000000	      0.00000000
      0.73000000	     14.87183699	      3.57667393	     -4.69734938	      0.01681550	      0.91147512	     -0.99823357	    -25.91841324	     -4.74391388	     -5.07733829	    -40.74783372	     -0.71118386	     -8.26436765	    -10.78176727	     -0.54960587	     11.07523937	     -3.79167481	     11.93126715	    -26.41101501	     -0.46095917	      2.02422698	      7.29771916	     -5.46317256	    -21.67094358	     -6.99410381	      1.95794368	     -6.59860153	    -14.71709146	     -4.98194244	     56.95317130	     89.95437384	      0.00000000	      0.00000000	    -15.05548004	      9.14506375	     18.58702412	      8.09858172	     89.95437384	      0.00000000	      0.00000000
      0.74000000	     15.15420859	      4.53801808	     -4.64533517	      0.03355004	      0.91386087	     -0.99989644	    -24.45923402	     -6.27589949	     -5.89168764	    -44.54883437	     -0.77752384	    -10.98608715	    -10.48315006	      4.05595421	      9.86521053	     -5.46424850	     10.39320584	    -26.48026867	     -0.46216788	      2.43331888	      8.94355042	     -5.12745247	    -21.70266038	     -7.95111400	      1.40219318	     -6.93598634	    -14.30634224	     -4.93978512	     55.71076554	     89.95437384	      0.00000000	      0.00000000	    -14.95780065	      9.41678645	     17.18297591	      8.38756297	     89.95437384	      0.00000000	      0.00000000
      0.75000000	     15.44314755	      4.97550972	     -4.49696989	      0.05016063	      0.91622890	     -1.00119783	    -23.04657340	     -7.11858761	     -6.26388930	    -47.81425721	     -0.83451622	    -14.95220855	    -11.15802313	      4.82926155	      8.58526157	     -6.30801767	      9.81606110	    -26.63628656	     -0.46489090	      3.07953122	      8.28185157	     -5.12936307	    -21.80361790	     -8.34907294	      0.88376519	     -7.30398959	    -14.00767529	     -4.67615215	     54.50730275	     89.95437384	      0.00000000	      0.00000000	    -14.79459136	      9.60486560	     16.61896074	      8.79181809	     89.95437384	      0.00000000	      0.00000000
      0.76000000	     15.54324737	      5.49214866	     -4.38321886	      0.06596913	      0.91833136	     -1.00259614	    -21.17113202	     -8.02767678	     -6.50593732	    -51.13569420	     -0.89248623	    -18.66433747	    -12.19734566	     12.95575094	      7.29718281	     -7.39227949	      8.81466149	    -26.29676989	     -0.45896522	      3.73314683	      9.73361953	     -5.04430288	    -21.77035645	     -8.78760851	      0.47786205	     -7.60448954	    -13.67457049	     -4.54117751	     53.16708709	     89.95437384	      0.00000000	      0.00000000	    -14.62082793	      9.92576135	     14.11143000	      9.52524987	     89.95437384	      0.00000000	      0.00000000
